<svg width="24" height="24" viewBox="0 0 24 24" xmlns="http://www.w3.org/2000/svg">
<path d="M22 0H2C1.46957 0 0.960859 0.210714 0.585786 0.585786C0.210714 0.960859 0 1.46957 0 2V22C0 22.5304 0.210714 23.0391 0.585786 23.4142C0.960859 23.7893 1.46957 24 2 24H22C22.5304 24 23.0391 23.7893 23.4142 23.4142C23.7893 23.0391 24 22.5304 24 22V2C24 1.46957 23.7893 0.960859 23.4142 0.585786C23.0391 0.210714 22.5304 0 22 0ZM17.7075 9.7075L10.7075 16.7075C10.6146 16.8005 10.5043 16.8742 10.3829 16.9246C10.2615 16.9749 10.1314 17.0008 10 17.0008C9.86858 17.0008 9.73846 16.9749 9.61706 16.9246C9.49566 16.8742 9.38537 16.8005 9.2925 16.7075L6.2925 13.7075C6.10486 13.5199 5.99944 13.2654 5.99944 13C5.99944 12.7346 6.10486 12.4801 6.2925 12.2925C6.48014 12.1049 6.73464 11.9994 7 11.9994C7.26536 11.9994 7.51986 12.1049 7.7075 12.2925L10 14.5863L16.2925 8.2925C16.3854 8.19959 16.4957 8.12589 16.6171 8.07561C16.7385 8.02532 16.8686 7.99944 17 7.99944C17.1314 7.99944 17.2615 8.02532 17.3829 8.07561C17.5043 8.12589 17.6146 8.19959 17.7075 8.2925C17.8004 8.38541 17.8741 8.49571 17.9244 8.6171C17.9747 8.7385 18.0006 8.86861 18.0006 9C18.0006 9.13139 17.9747 9.2615 17.9244 9.3829C17.8741 9.50429 17.8004 9.61459 17.7075 9.7075Z" />
</svg>
