<svg width="22" height="27" viewBox="0 0 22 27" xmlns="http://www.w3.org/2000/svg">
<path d="M16 16.9999C16 17.2652 15.8946 17.5195 15.7071 17.707C15.5196 17.8946 15.2652 17.9999 15 17.9999H7C6.73478 17.9999 6.48043 17.8946 6.29289 17.707C6.10536 17.5195 6 17.2652 6 16.9999C6 16.7347 6.10536 16.4804 6.29289 16.2928C6.48043 16.1053 6.73478 15.9999 7 15.9999H15C15.2652 15.9999 15.5196 16.1053 15.7071 16.2928C15.8946 16.4804 16 16.7347 16 16.9999ZM15 11.9999H7C6.73478 11.9999 6.48043 12.1053 6.29289 12.2928C6.10536 12.4804 6 12.7347 6 12.9999C6 13.2652 6.10536 13.5195 6.29289 13.707C6.48043 13.8946 6.73478 13.9999 7 13.9999H15C15.2652 13.9999 15.5196 13.8946 15.7071 13.707C15.8946 13.5195 16 13.2652 16 12.9999C16 12.7347 15.8946 12.4804 15.7071 12.2928C15.5196 12.1053 15.2652 11.9999 15 11.9999ZM22 3.99994V24.9999C22 25.5304 21.7893 26.0391 21.4142 26.4142C21.0391 26.7892 20.5304 26.9999 20 26.9999H2C1.46957 26.9999 0.960859 26.7892 0.585786 26.4142C0.210714 26.0391 0 25.5304 0 24.9999V3.99994C0 3.46951 0.210714 2.9608 0.585786 2.58573C0.960859 2.21065 1.46957 1.99994 2 1.99994H6.5325C7.09438 1.37085 7.78279 0.867512 8.55266 0.522889C9.32254 0.178265 10.1565 0.00012207 11 0.00012207C11.8435 0.00012207 12.6775 0.178265 13.4473 0.522889C14.2172 0.867512 14.9056 1.37085 15.4675 1.99994H20C20.5304 1.99994 21.0391 2.21065 21.4142 2.58573C21.7893 2.9608 22 3.46951 22 3.99994ZM7 5.99994H15C15 4.93907 14.5786 3.92166 13.8284 3.17151C13.0783 2.42137 12.0609 1.99994 11 1.99994C9.93913 1.99994 8.92172 2.42137 8.17157 3.17151C7.42143 3.92166 7 4.93907 7 5.99994ZM20 3.99994H16.6562C16.8837 4.64221 17 5.31858 17 5.99994V6.99994C17 7.26516 16.8946 7.51951 16.7071 7.70705C16.5196 7.89458 16.2652 7.99994 16 7.99994H6C5.73478 7.99994 5.48043 7.89458 5.29289 7.70705C5.10536 7.51951 5 7.26516 5 6.99994V5.99994C5.00002 5.31858 5.11627 4.64221 5.34375 3.99994H2V24.9999H20V3.99994Z" />
</svg>
